<svg xmlns="http://www.w3.org/2000/svg" width="300" height="300"><path d="M217.978 279.502c-14.498-9.57-28.97-19.175-43.523-28.667-1.03-.672-2.698-.94-3.908-.672-11.905 2.63-23.89 3.34-35.942 1.438-23.953-3.775-44.235-14.524-60.194-32.838-20.234-23.214-28.22-50.377-23.813-80.75 3.797-26.152 16.49-47.632 37.408-63.852 22.602-17.536 48.376-24.125 76.6-19.85 24.16 3.662 44.428 14.985 60.288 33.64 19.624 23.085 27.21 49.905 22.98 79.804-2.895 20.505-11.857 38.316-26.027 53.495-.96 1.023-1.593 2.782-1.593 4.208-.018 17.48.117 34.957.21 52.437.004.895 0 1.79 0 3.096-1.095-.654-1.813-1.04-2.485-1.488m-26.293-65.678c-.06-1.934.595-3.287 1.89-4.674 4.658-4.99 9.737-9.707 13.668-15.23 29.732-41.755 6.706-100.336-43.4-110.84-39.577-8.303-78.118 18.112-84.97 58.238-6.49 37.988 19.616 74.844 57.656 81.667 11.756 2.104 23.23 1.023 34.45-2.468 5.087-1.588 8.374-.993 13.132 2.308.063.04 7.463 4.963 7.615 5.06 0-5.14.093-9.6-.042-14.06" fill="#2a9840"/><path d="M159.726 175.574c0-3.13 2.536-5.667 5.665-5.667 3.128 0 5.667 2.536 5.667 5.667 0 3.128-2.54 5.664-5.666 5.664-3.128 0-5.664-2.535-5.664-5.664" fill="#f8e034"/></svg>